# Blender v3.4.1 OBJ File: ''
# www.blender.org
mtllib wheels.mtl
o Object001_Mesh.001
v -0.657910 0.080161 0.986831
v -0.693864 0.080161 1.232895
v -0.693864 -0.014004 1.214165
v -0.693864 -0.093833 1.160825
v -0.693864 -0.147172 1.080996
v -0.693864 -0.165903 0.986831
v -0.693864 -0.147172 0.892667
v -0.693864 -0.093833 0.812838
v -0.693864 -0.014004 0.759498
v -0.693864 0.080161 0.740768
v -0.693864 0.174325 0.759498
v -0.693864 0.254154 0.812838
v -0.693864 0.307494 0.892667
v -0.693864 0.326224 0.986831
v -0.693864 0.307494 1.080996
v -0.693864 0.254154 1.160825
v -0.693864 0.174325 1.214165
v -0.681205 0.080161 1.249262
v -0.681205 -0.020267 1.229285
v -0.681205 -0.105405 1.172398
v -0.681205 -0.162293 1.087259
v -0.681204 -0.182269 0.986831
v -0.681205 -0.162293 0.886404
v -0.681205 -0.105405 0.801265
v -0.681205 -0.020267 0.744378
v -0.681205 0.080161 0.724401
v -0.681205 0.180588 0.744378
v -0.681205 0.265727 0.801265
v -0.681205 0.322615 0.886404
v -0.681205 0.342591 0.986831
v -0.681205 0.322615 1.087259
v -0.681205 0.265727 1.172398
v -0.681205 0.180588 1.229285
v -0.555927 0.080161 1.249262
v -0.555927 -0.020267 1.229285
v -0.555927 -0.105405 1.172398
v -0.555927 -0.162293 1.087259
v -0.555927 -0.182269 0.986831
v -0.555927 -0.162293 0.886404
v -0.555927 -0.105405 0.801265
v -0.555927 -0.020267 0.744378
v -0.555927 0.080161 0.724401
v -0.555927 0.180588 0.744378
v -0.555927 0.265727 0.801265
v -0.555927 0.322615 0.886404
v -0.555927 0.342591 0.986832
v -0.555927 0.322615 1.087259
v -0.555927 0.265727 1.172398
v -0.555927 0.180588 1.229285
v -0.555927 0.080161 0.986832
v -0.657909 0.080161 -1.168865
v -0.693863 -0.014004 -0.941532
v -0.693863 0.080161 -0.922801
v -0.693863 -0.093833 -0.994872
v -0.693863 -0.147172 -1.074701
v -0.693863 -0.165903 -1.168865
v -0.693863 -0.147172 -1.263029
v -0.693863 -0.093833 -1.342858
v -0.693863 -0.014004 -1.396198
v -0.693863 0.080161 -1.414929
v -0.693863 0.174325 -1.396198
v -0.693863 0.254154 -1.342858
v -0.693863 0.307494 -1.263029
v -0.693863 0.326224 -1.168865
v -0.693863 0.307494 -1.074700
v -0.693863 0.254154 -0.994872
v -0.693863 0.174325 -0.941532
v -0.681204 -0.020267 -0.926411
v -0.681204 0.080161 -0.906435
v -0.681204 -0.105405 -0.983299
v -0.681204 -0.162293 -1.068437
v -0.681204 -0.182269 -1.168865
v -0.681204 -0.162293 -1.269293
v -0.681204 -0.105405 -1.354431
v -0.681204 -0.020267 -1.411319
v -0.681204 0.080161 -1.431295
v -0.681204 0.180588 -1.411319
v -0.681204 0.265727 -1.354431
v -0.681204 0.322615 -1.269293
v -0.681204 0.342591 -1.168865
v -0.681204 0.322615 -1.068437
v -0.681204 0.265727 -0.983299
v -0.681204 0.180588 -0.926411
v -0.555927 -0.020267 -0.926411
v -0.555927 0.080161 -0.906435
v -0.555927 -0.105405 -0.983299
v -0.555927 -0.162293 -1.068437
v -0.555927 -0.182269 -1.168865
v -0.555927 -0.162293 -1.269293
v -0.555927 -0.105405 -1.354431
v -0.555927 -0.020267 -1.411319
v -0.555927 0.080161 -1.431295
v -0.555927 0.180588 -1.411319
v -0.555927 0.265727 -1.354431
v -0.555927 0.322615 -1.269293
v -0.555927 0.342591 -1.168865
v -0.555927 0.322615 -1.068437
v -0.555927 0.265727 -0.983299
v -0.555927 0.180588 -0.926411
v -0.555927 0.080161 -1.168865
v 0.697235 0.080161 0.986832
v 0.733189 -0.014004 1.214165
v 0.733189 0.080161 1.232895
v 0.733189 -0.093832 1.160825
v 0.733189 -0.147172 1.080996
v 0.733189 -0.165903 0.986832
v 0.733189 -0.147172 0.892667
v 0.733189 -0.093832 0.812838
v 0.733189 -0.014004 0.759499
v 0.733189 0.080161 0.740768
v 0.733189 0.174325 0.759499
v 0.733189 0.254154 0.812838
v 0.733189 0.307494 0.892667
v 0.733189 0.326225 0.986832
v 0.733189 0.307494 1.080996
v 0.733189 0.254154 1.160825
v 0.733189 0.174325 1.214165
v 0.720530 -0.020267 1.229286
v 0.720530 0.080161 1.249262
v 0.720530 -0.105405 1.172398
v 0.720530 -0.162293 1.087259
v 0.720530 -0.182269 0.986832
v 0.720530 -0.162293 0.886404
v 0.720530 -0.105405 0.801266
v 0.720530 -0.020267 0.744378
v 0.720530 0.080161 0.724402
v 0.720530 0.180589 0.744378
v 0.720530 0.265727 0.801266
v 0.720530 0.322615 0.886404
v 0.720530 0.342591 0.986832
v 0.720530 0.322615 1.087259
v 0.720530 0.265727 1.172398
v 0.720530 0.180589 1.229286
v 0.595253 -0.020267 1.229286
v 0.595253 0.080161 1.249262
v 0.595253 -0.105405 1.172398
v 0.595253 -0.162293 1.087259
v 0.595253 -0.182269 0.986832
v 0.595253 -0.162293 0.886404
v 0.595253 -0.105405 0.801266
v 0.595253 -0.020267 0.744378
v 0.595253 0.080161 0.724402
v 0.595253 0.180589 0.744378
v 0.595253 0.265727 0.801265
v 0.595253 0.322615 0.886404
v 0.595253 0.342591 0.986832
v 0.595253 0.322615 1.087259
v 0.595253 0.265727 1.172398
v 0.595253 0.180589 1.229286
v 0.595253 0.080161 0.986832
v 0.697236 0.080161 -1.168864
v 0.733190 -0.014004 -0.941532
v 0.733190 0.080161 -0.922801
v 0.733190 -0.093832 -0.994871
v 0.733190 -0.147172 -1.074700
v 0.733190 -0.165903 -1.168865
v 0.733190 -0.147172 -1.263029
v 0.733190 -0.093832 -1.342858
v 0.733190 -0.014004 -1.396198
v 0.733190 0.080161 -1.414928
v 0.733190 0.174325 -1.396198
v 0.733190 0.254154 -1.342858
v 0.733190 0.307494 -1.263029
v 0.733190 0.326225 -1.168864
v 0.733190 0.307494 -1.074700
v 0.733190 0.254154 -0.994871
v 0.733190 0.174325 -0.941532
v 0.720531 -0.020267 -0.926411
v 0.720530 0.080161 -0.906435
v 0.720531 -0.105405 -0.983298
v 0.720531 -0.162293 -1.068437
v 0.720531 -0.182269 -1.168865
v 0.720531 -0.162293 -1.269292
v 0.720531 -0.105405 -1.354431
v 0.720531 -0.020267 -1.411319
v 0.720531 0.080161 -1.431295
v 0.720531 0.180589 -1.411319
v 0.720531 0.265727 -1.354431
v 0.720531 0.322615 -1.269292
v 0.720530 0.342591 -1.168864
v 0.720530 0.322615 -1.068437
v 0.720530 0.265727 -0.983298
v 0.720530 0.180589 -0.926411
v 0.595253 -0.020267 -0.926411
v 0.595253 0.080161 -0.906435
v 0.595253 -0.105405 -0.983298
v 0.595253 -0.162293 -1.068437
v 0.595253 -0.182269 -1.168865
v 0.595253 -0.162293 -1.269292
v 0.595253 -0.105405 -1.354431
v 0.595253 -0.020267 -1.411319
v 0.595253 0.080161 -1.431295
v 0.595253 0.180589 -1.411319
v 0.595253 0.265727 -1.354431
v 0.595253 0.322615 -1.269292
v 0.595253 0.342591 -1.168864
v 0.595253 0.322615 -1.068437
v 0.595253 0.265727 -0.983298
v 0.595253 0.180589 -0.926411
v 0.595253 0.080161 -1.168864
vt 0.501322 0.538719
vt 0.897112 0.374777
vt 0.929722 0.538719
vt 0.804246 0.235794
vt 0.665264 0.142928
vt 0.501322 0.110318
vt 0.337380 0.142928
vt 0.198397 0.235794
vt 0.105532 0.374777
vt 0.072922 0.538718
vt 0.105532 0.702660
vt 0.198397 0.841643
vt 0.337380 0.934509
vt 0.501322 0.967118
vt 0.665264 0.934509
vt 0.804247 0.841643
vt 0.897112 0.702660
vt 0.003439 0.096317
vt 0.064784 0.096317
vt 0.064784 0.083758
vt 0.003439 0.083758
vt 0.126575 0.096317
vt 0.126575 0.083758
vt 0.188556 0.096317
vt 0.188556 0.083758
vt 0.250683 0.096317
vt 0.250683 0.083758
vt 0.312923 0.096317
vt 0.312923 0.083758
vt 0.375247 0.096317
vt 0.375247 0.083758
vt 0.437631 0.096317
vt 0.437631 0.083758
vt 0.499973 0.096317
vt 0.499973 0.083758
vt 0.562290 0.096317
vt 0.562290 0.083758
vt 0.624665 0.096317
vt 0.624665 0.083758
vt 0.687017 0.096317
vt 0.687017 0.083758
vt 0.749294 0.096317
vt 0.749294 0.083758
vt 0.811467 0.096317
vt 0.811467 0.083758
vt 0.873507 0.096317
vt 0.873507 0.083758
vt 0.935367 0.096317
vt 0.935367 0.083758
vt 0.996793 0.096317
vt 0.996793 0.083758
vt 0.064784 0.006708
vt 0.003439 0.006708
vt 0.126575 0.006708
vt 0.188556 0.006708
vt 0.250683 0.006708
vt 0.312923 0.006708
vt 0.375247 0.006708
vt 0.437631 0.006708
vt 0.499973 0.006708
vt 0.562290 0.006708
vt 0.624665 0.006708
vt 0.687017 0.006708
vt 0.749294 0.006708
vt 0.811467 0.006708
vt 0.873507 0.006708
vt 0.935367 0.006708
vt 0.996793 0.006708
vt 0.800153 0.901028
vt 0.807322 0.864986
vt 0.894336 0.901028
vt 0.827739 0.834431
vt 0.858294 0.814014
vt 0.894336 0.806845
vt 0.930378 0.814014
vt 0.960933 0.834431
vt 0.981349 0.864986
vt 0.988518 0.901028
vt 0.981349 0.937070
vt 0.960933 0.967625
vt 0.930378 0.988041
vt 0.894336 0.995211
vt 0.858294 0.988041
vt 0.827739 0.967625
vt 0.807322 0.937070
vt 0.501323 0.538719
vt 0.897113 0.374777
vt 0.929722 0.538719
vt 0.804247 0.235794
vt 0.665264 0.142928
vt 0.501322 0.110318
vt 0.337381 0.142928
vt 0.198398 0.235794
vt 0.105533 0.374777
vt 0.072923 0.538718
vt 0.105533 0.702660
vt 0.198398 0.841643
vt 0.337381 0.934509
vt 0.501323 0.967118
vt 0.665264 0.934509
vt 0.804247 0.841643
vt 0.897113 0.702660
vt 0.003444 0.096316
vt 0.064788 0.096316
vt 0.064788 0.083757
vt 0.003444 0.083757
vt 0.126579 0.096316
vt 0.126579 0.083757
vt 0.188560 0.096316
vt 0.188560 0.083757
vt 0.250686 0.096316
vt 0.250686 0.083757
vt 0.312927 0.096316
vt 0.312927 0.083757
vt 0.375252 0.096316
vt 0.375252 0.083757
vt 0.437637 0.096316
vt 0.437637 0.083757
vt 0.499979 0.096316
vt 0.499979 0.083757
vt 0.562296 0.096316
vt 0.562296 0.083757
vt 0.624670 0.096316
vt 0.624670 0.083757
vt 0.687022 0.096316
vt 0.687022 0.083757
vt 0.749298 0.096316
vt 0.749298 0.083757
vt 0.811471 0.096316
vt 0.811471 0.083757
vt 0.873509 0.096316
vt 0.873509 0.083757
vt 0.935369 0.096316
vt 0.935369 0.083757
vt 0.996793 0.096316
vt 0.996793 0.083757
vt 0.064788 0.006708
vt 0.003444 0.006708
vt 0.126579 0.006708
vt 0.188560 0.006708
vt 0.250686 0.006708
vt 0.312927 0.006708
vt 0.375252 0.006708
vt 0.437637 0.006708
vt 0.499979 0.006708
vt 0.562296 0.006708
vt 0.624670 0.006708
vt 0.687022 0.006708
vt 0.749298 0.006708
vt 0.811471 0.006708
vt 0.873509 0.006708
vt 0.935369 0.006708
vt 0.996793 0.006708
vt 0.800153 0.901028
vt 0.807322 0.864986
vt 0.894336 0.901028
vt 0.827739 0.834431
vt 0.858294 0.814014
vt 0.894336 0.806845
vt 0.930378 0.814014
vt 0.960933 0.834431
vt 0.981349 0.864986
vt 0.988518 0.901028
vt 0.981349 0.937070
vt 0.960933 0.967625
vt 0.930378 0.988041
vt 0.894336 0.995211
vt 0.858294 0.988041
vt 0.827739 0.967625
vt 0.807322 0.937070
vt 0.501322 0.538719
vt 0.072922 0.538719
vt 0.105532 0.374777
vt 0.198397 0.235794
vt 0.337380 0.142929
vt 0.501322 0.110319
vt 0.665263 0.142929
vt 0.804246 0.235794
vt 0.897112 0.374777
vt 0.929722 0.538719
vt 0.897112 0.702660
vt 0.804246 0.841643
vt 0.665263 0.934509
vt 0.501322 0.967119
vt 0.337380 0.934509
vt 0.198397 0.841643
vt 0.105532 0.702660
vt 0.003481 0.096314
vt 0.003481 0.083755
vt 0.064821 0.083755
vt 0.064821 0.096314
vt 0.126609 0.083755
vt 0.126609 0.096314
vt 0.188587 0.083755
vt 0.188587 0.096314
vt 0.250710 0.083755
vt 0.250710 0.096314
vt 0.312948 0.083755
vt 0.312948 0.096314
vt 0.375270 0.083755
vt 0.375270 0.096314
vt 0.437652 0.083755
vt 0.437652 0.096314
vt 0.499993 0.083755
vt 0.499993 0.096314
vt 0.562308 0.083755
vt 0.562308 0.096314
vt 0.624682 0.083755
vt 0.624682 0.096314
vt 0.687033 0.083755
vt 0.687033 0.096314
vt 0.749308 0.083755
vt 0.749308 0.096314
vt 0.811479 0.083755
vt 0.811479 0.096314
vt 0.873515 0.083755
vt 0.873515 0.096314
vt 0.935372 0.083755
vt 0.935372 0.096314
vt 0.996793 0.083755
vt 0.996793 0.096314
vt 0.003481 0.006708
vt 0.064821 0.006708
vt 0.126609 0.006708
vt 0.188587 0.006708
vt 0.250710 0.006708
vt 0.312948 0.006708
vt 0.375270 0.006708
vt 0.437652 0.006708
vt 0.499993 0.006708
vt 0.562308 0.006708
vt 0.624682 0.006708
vt 0.687033 0.006708
vt 0.749308 0.006708
vt 0.811479 0.006708
vt 0.873515 0.006708
vt 0.935372 0.006708
vt 0.996793 0.006708
vt 0.988518 0.901028
vt 0.894336 0.901028
vt 0.981349 0.864986
vt 0.960933 0.834431
vt 0.930378 0.814015
vt 0.894336 0.806845
vt 0.858294 0.814015
vt 0.827739 0.834431
vt 0.807322 0.864986
vt 0.800153 0.901028
vt 0.807322 0.937070
vt 0.827739 0.967625
vt 0.858294 0.988041
vt 0.894336 0.995211
vt 0.930378 0.988041
vt 0.960933 0.967625
vt 0.981349 0.937070
vt 0.501322 0.538719
vt 0.072922 0.538719
vt 0.105532 0.374777
vt 0.198398 0.235795
vt 0.337381 0.142929
vt 0.501322 0.110319
vt 0.665264 0.142929
vt 0.804246 0.235795
vt 0.897112 0.374777
vt 0.929722 0.538719
vt 0.897112 0.702661
vt 0.804247 0.841644
vt 0.665264 0.934509
vt 0.501322 0.967119
vt 0.337381 0.934509
vt 0.198397 0.841643
vt 0.105532 0.702660
vt 0.003440 0.096317
vt 0.003440 0.083757
vt 0.064787 0.083757
vt 0.064787 0.096317
vt 0.126581 0.083757
vt 0.126581 0.096317
vt 0.188564 0.083757
vt 0.188564 0.096317
vt 0.250692 0.083757
vt 0.250692 0.096317
vt 0.312934 0.083757
vt 0.312934 0.096317
vt 0.375259 0.083757
vt 0.375259 0.096317
vt 0.437643 0.083757
vt 0.437643 0.096317
vt 0.499985 0.083757
vt 0.499985 0.096317
vt 0.562301 0.083757
vt 0.562301 0.096317
vt 0.624675 0.083757
vt 0.624675 0.096317
vt 0.687027 0.083757
vt 0.687027 0.096317
vt 0.749302 0.083757
vt 0.749302 0.096317
vt 0.811474 0.083757
vt 0.811474 0.096317
vt 0.873512 0.083757
vt 0.873512 0.096317
vt 0.935370 0.083757
vt 0.935370 0.096317
vt 0.996793 0.083757
vt 0.996793 0.096317
vt 0.003440 0.006708
vt 0.064787 0.006708
vt 0.126581 0.006708
vt 0.188564 0.006708
vt 0.250692 0.006708
vt 0.312934 0.006708
vt 0.375259 0.006708
vt 0.437643 0.006708
vt 0.499985 0.006708
vt 0.562301 0.006708
vt 0.624675 0.006708
vt 0.687027 0.006708
vt 0.749302 0.006708
vt 0.811474 0.006708
vt 0.873512 0.006708
vt 0.935370 0.006708
vt 0.996793 0.006708
vt 0.988518 0.901028
vt 0.894336 0.901028
vt 0.981349 0.864986
vt 0.960933 0.834431
vt 0.930378 0.814015
vt 0.894336 0.806845
vt 0.858294 0.814015
vt 0.827739 0.834431
vt 0.807322 0.864986
vt 0.800153 0.901028
vt 0.807322 0.937070
vt 0.827739 0.967625
vt 0.858294 0.988041
vt 0.894336 0.995211
vt 0.930378 0.988041
vt 0.960933 0.967625
vt 0.981349 0.937070
vn -1.0000 -0.0000 -0.0000
vn -0.9545 -0.1142 0.2756
vn -0.9545 -0.0000 0.2983
vn -0.9545 -0.2110 0.2110
vn -0.9545 -0.2756 0.1142
vn -0.9545 -0.2984 -0.0000
vn -0.9545 -0.2756 -0.1142
vn -0.9545 -0.2110 -0.2110
vn -0.9545 -0.1142 -0.2756
vn -0.9545 -0.0000 -0.2984
vn -0.9545 0.1142 -0.2756
vn -0.9545 0.2110 -0.2110
vn -0.9545 0.2756 -0.1142
vn -0.9545 0.2983 -0.0000
vn -0.9545 0.2756 0.1142
vn -0.9545 0.2110 0.2110
vn -0.9545 0.1142 0.2756
vn -0.4202 -0.3473 0.8383
vn -0.4202 -0.0000 0.9074
vn -0.4202 -0.6416 0.6416
vn -0.4202 -0.8383 0.3473
vn -0.4202 -0.9074 -0.0000
vn -0.4202 -0.8383 -0.3473
vn -0.4202 -0.6416 -0.6416
vn -0.4202 -0.3473 -0.8383
vn -0.4202 -0.0000 -0.9074
vn -0.4202 0.3473 -0.8383
vn -0.4202 0.6416 -0.6416
vn -0.4202 0.8383 -0.3473
vn -0.4202 0.9074 -0.0000
vn -0.4202 0.8383 0.3473
vn -0.4202 0.6416 0.6416
vn -0.4202 0.3473 0.8383
vn 0.0000 -0.3827 0.9239
vn 0.0000 -0.0000 1.0000
vn 0.0000 -0.7071 0.7071
vn 0.0000 -0.9239 0.3827
vn 0.0000 -1.0000 -0.0000
vn 0.0000 -0.9239 -0.3827
vn 0.0000 -0.7071 -0.7071
vn 0.0000 -0.3827 -0.9239
vn 0.0000 -0.0000 -1.0000
vn 0.0000 0.3827 -0.9239
vn -0.0000 0.7071 -0.7071
vn -0.0000 0.9239 -0.3827
vn -0.0000 1.0000 0.0000
vn -0.0000 0.9239 0.3827
vn -0.0000 0.7071 0.7071
vn -0.0000 0.3827 0.9239
vn 1.0000 -0.0000 0.0000
vn -0.4202 -0.3472 0.8383
vn -0.4202 0.3472 0.8383
vn 0.9545 0.0000 0.2984
vn 0.9545 -0.1142 0.2756
vn 0.9545 -0.2110 0.2110
vn 0.9545 -0.2756 0.1142
vn 0.9545 -0.2984 -0.0000
vn 0.9545 -0.2756 -0.1142
vn 0.9545 -0.2110 -0.2110
vn 0.9545 -0.1142 -0.2756
vn 0.9545 -0.0000 -0.2984
vn 0.9545 0.1142 -0.2756
vn 0.9545 0.2110 -0.2110
vn 0.9545 0.2756 -0.1142
vn 0.9545 0.2984 0.0000
vn 0.9545 0.2756 0.1142
vn 0.9545 0.2110 0.2110
vn 0.9545 0.1142 0.2756
vn 0.4202 0.0000 0.9074
vn 0.4202 -0.3473 0.8383
vn 0.4202 -0.6416 0.6416
vn 0.4202 -0.8383 0.3473
vn 0.4202 -0.9074 -0.0000
vn 0.4202 -0.8383 -0.3473
vn 0.4202 -0.6416 -0.6416
vn 0.4202 -0.3473 -0.8383
vn 0.4202 -0.0000 -0.9074
vn 0.4202 0.3473 -0.8383
vn 0.4202 0.6416 -0.6416
vn 0.4202 0.8383 -0.3473
vn 0.4202 0.9074 0.0000
vn 0.4202 0.8383 0.3473
vn 0.4202 0.6416 0.6416
vn 0.4202 0.3473 0.8383
usemtl 21_-_Default
s 1
f 1/1/1 3/2/2 2/3/3
f 1/1/1 4/4/4 3/2/2
f 1/1/1 5/5/5 4/4/4
f 1/1/1 6/6/6 5/5/5
f 1/1/1 7/7/7 6/6/6
f 1/1/1 8/8/8 7/7/7
f 1/1/1 9/9/9 8/8/8
f 1/1/1 10/10/10 9/9/9
f 1/1/1 11/11/11 10/10/10
f 1/1/1 12/12/12 11/11/11
f 1/1/1 13/13/13 12/12/12
f 1/1/1 14/14/14 13/13/13
f 1/1/1 15/15/15 14/14/14
f 1/1/1 16/16/16 15/15/15
f 1/1/1 17/17/17 16/16/16
f 1/1/1 2/3/3 17/17/17
f 2/18/3 3/19/2 19/20/18 18/21/19
f 3/19/2 4/22/4 20/23/20 19/20/18
f 4/22/4 5/24/5 21/25/21 20/23/20
f 5/24/5 6/26/6 22/27/22 21/25/21
f 6/26/6 7/28/7 23/29/23 22/27/22
f 7/28/7 8/30/8 24/31/24 23/29/23
f 8/30/8 9/32/9 25/33/25 24/31/24
f 9/32/9 10/34/10 26/35/26 25/33/25
f 10/34/10 11/36/11 27/37/27 26/35/26
f 11/36/11 12/38/12 28/39/28 27/37/27
f 12/38/12 13/40/13 29/41/29 28/39/28
f 13/40/13 14/42/14 30/43/30 29/41/29
f 14/42/14 15/44/15 31/45/31 30/43/30
f 15/44/15 16/46/16 32/47/32 31/45/31
f 16/46/16 17/48/17 33/49/33 32/47/32
f 17/48/17 2/50/3 18/51/19 33/49/33
f 18/21/19 19/20/18 35/52/34 34/53/35
f 19/20/18 20/23/20 36/54/36 35/52/34
f 20/23/20 21/25/21 37/55/37 36/54/36
f 21/25/21 22/27/22 38/56/38 37/55/37
f 22/27/22 23/29/23 39/57/39 38/56/38
f 23/29/23 24/31/24 40/58/40 39/57/39
f 24/31/24 25/33/25 41/59/41 40/58/40
f 25/33/25 26/35/26 42/60/42 41/59/41
f 26/35/26 27/37/27 43/61/43 42/60/42
f 27/37/27 28/39/28 44/62/44 43/61/43
f 28/39/28 29/41/29 45/63/45 44/62/44
f 29/41/29 30/43/30 46/64/46 45/63/45
f 30/43/30 31/45/31 47/65/47 46/64/46
f 31/45/31 32/47/32 48/66/48 47/65/47
f 32/47/32 33/49/33 49/67/49 48/66/48
f 33/49/33 18/51/19 34/68/35 49/67/49
f 34/69/50 35/70/50 50/71/50
f 35/70/50 36/72/50 50/71/50
f 36/72/50 37/73/50 50/71/50
f 37/73/50 38/74/50 50/71/50
f 38/74/50 39/75/50 50/71/50
f 39/75/50 40/76/50 50/71/50
f 40/76/50 41/77/50 50/71/50
f 41/77/50 42/78/50 50/71/50
f 42/78/50 43/79/50 50/71/50
f 43/79/50 44/80/50 50/71/50
f 44/80/50 45/81/50 50/71/50
f 45/81/50 46/82/50 50/71/50
f 46/82/50 47/83/50 50/71/50
f 47/83/50 48/84/50 50/71/50
f 48/84/50 49/85/50 50/71/50
f 49/85/50 34/69/50 50/71/50
f 51/86/1 52/87/2 53/88/3
f 51/86/1 54/89/4 52/87/2
f 51/86/1 55/90/5 54/89/4
f 51/86/1 56/91/6 55/90/5
f 51/86/1 57/92/7 56/91/6
f 51/86/1 58/93/8 57/92/7
f 51/86/1 59/94/9 58/93/8
f 51/86/1 60/95/10 59/94/9
f 51/86/1 61/96/11 60/95/10
f 51/86/1 62/97/12 61/96/11
f 51/86/1 63/98/13 62/97/12
f 51/86/1 64/99/14 63/98/13
f 51/86/1 65/100/15 64/99/14
f 51/86/1 66/101/16 65/100/15
f 51/86/1 67/102/17 66/101/16
f 51/86/1 53/88/3 67/102/17
f 53/103/3 52/104/2 68/105/51 69/106/19
f 52/104/2 54/107/4 70/108/20 68/105/51
f 54/107/4 55/109/5 71/110/21 70/108/20
f 55/109/5 56/111/6 72/112/22 71/110/21
f 56/111/6 57/113/7 73/114/23 72/112/22
f 57/113/7 58/115/8 74/116/24 73/114/23
f 58/115/8 59/117/9 75/118/25 74/116/24
f 59/117/9 60/119/10 76/120/26 75/118/25
f 60/119/10 61/121/11 77/122/27 76/120/26
f 61/121/11 62/123/12 78/124/28 77/122/27
f 62/123/12 63/125/13 79/126/29 78/124/28
f 63/125/13 64/127/14 80/128/30 79/126/29
f 64/127/14 65/129/15 81/130/31 80/128/30
f 65/129/15 66/131/16 82/132/32 81/130/31
f 66/131/16 67/133/17 83/134/52 82/132/32
f 67/133/17 53/135/3 69/136/19 83/134/52
f 69/106/19 68/105/51 84/137/34 85/138/35
f 68/105/51 70/108/20 86/139/36 84/137/34
f 70/108/20 71/110/21 87/140/37 86/139/36
f 71/110/21 72/112/22 88/141/38 87/140/37
f 72/112/22 73/114/23 89/142/39 88/141/38
f 73/114/23 74/116/24 90/143/40 89/142/39
f 74/116/24 75/118/25 91/144/41 90/143/40
f 75/118/25 76/120/26 92/145/42 91/144/41
f 76/120/26 77/122/27 93/146/43 92/145/42
f 77/122/27 78/124/28 94/147/44 93/146/43
f 78/124/28 79/126/29 95/148/45 94/147/44
f 79/126/29 80/128/30 96/149/46 95/148/45
f 80/128/30 81/130/31 97/150/47 96/149/46
f 81/130/31 82/132/32 98/151/48 97/150/47
f 82/132/32 83/134/52 99/152/49 98/151/48
f 83/134/52 69/136/19 85/153/35 99/152/49
f 85/154/50 84/155/50 100/156/50
f 84/155/50 86/157/50 100/156/50
f 86/157/50 87/158/50 100/156/50
f 87/158/50 88/159/50 100/156/50
f 88/159/50 89/160/50 100/156/50
f 89/160/50 90/161/50 100/156/50
f 90/161/50 91/162/50 100/156/50
f 91/162/50 92/163/50 100/156/50
f 92/163/50 93/164/50 100/156/50
f 93/164/50 94/165/50 100/156/50
f 94/165/50 95/166/50 100/156/50
f 95/166/50 96/167/50 100/156/50
f 96/167/50 97/168/50 100/156/50
f 97/168/50 98/169/50 100/156/50
f 98/169/50 99/170/50 100/156/50
f 99/170/50 85/154/50 100/156/50
f 101/171/50 103/172/53 102/173/54
f 101/171/50 102/173/54 104/174/55
f 101/171/50 104/174/55 105/175/56
f 101/171/50 105/175/56 106/176/57
f 101/171/50 106/176/57 107/177/58
f 101/171/50 107/177/58 108/178/59
f 101/171/50 108/178/59 109/179/60
f 101/171/50 109/179/60 110/180/61
f 101/171/50 110/180/61 111/181/62
f 101/171/50 111/181/62 112/182/63
f 101/171/50 112/182/63 113/183/64
f 101/171/50 113/183/64 114/184/65
f 101/171/50 114/184/65 115/185/66
f 101/171/50 115/185/66 116/186/67
f 101/171/50 116/186/67 117/187/68
f 101/171/50 117/187/68 103/172/53
f 103/188/53 119/189/69 118/190/70 102/191/54
f 102/191/54 118/190/70 120/192/71 104/193/55
f 104/193/55 120/192/71 121/194/72 105/195/56
f 105/195/56 121/194/72 122/196/73 106/197/57
f 106/197/57 122/196/73 123/198/74 107/199/58
f 107/199/58 123/198/74 124/200/75 108/201/59
f 108/201/59 124/200/75 125/202/76 109/203/60
f 109/203/60 125/202/76 126/204/77 110/205/61
f 110/205/61 126/204/77 127/206/78 111/207/62
f 111/207/62 127/206/78 128/208/79 112/209/63
f 112/209/63 128/208/79 129/210/80 113/211/64
f 113/211/64 129/210/80 130/212/81 114/213/65
f 114/213/65 130/212/81 131/214/82 115/215/66
f 115/215/66 131/214/82 132/216/83 116/217/67
f 116/217/67 132/216/83 133/218/84 117/219/68
f 117/219/68 133/218/84 119/220/69 103/221/53
f 119/189/69 135/222/35 134/223/34 118/190/70
f 118/190/70 134/223/34 136/224/36 120/192/71
f 120/192/71 136/224/36 137/225/37 121/194/72
f 121/194/72 137/225/37 138/226/38 122/196/73
f 122/196/73 138/226/38 139/227/39 123/198/74
f 123/198/74 139/227/39 140/228/40 124/200/75
f 124/200/75 140/228/40 141/229/41 125/202/76
f 125/202/76 141/229/41 142/230/42 126/204/77
f 126/204/77 142/230/42 143/231/43 127/206/78
f 127/206/78 143/231/43 144/232/44 128/208/79
f 128/208/79 144/232/44 145/233/45 129/210/80
f 129/210/80 145/233/45 146/234/46 130/212/81
f 130/212/81 146/234/46 147/235/47 131/214/82
f 131/214/82 147/235/47 148/236/48 132/216/83
f 132/216/83 148/236/48 149/237/49 133/218/84
f 133/218/84 149/237/49 135/238/35 119/220/69
f 135/239/1 150/240/1 134/241/1
f 134/241/1 150/240/1 136/242/1
f 136/242/1 150/240/1 137/243/1
f 137/243/1 150/240/1 138/244/1
f 138/244/1 150/240/1 139/245/1
f 139/245/1 150/240/1 140/246/1
f 140/246/1 150/240/1 141/247/1
f 141/247/1 150/240/1 142/248/1
f 142/248/1 150/240/1 143/249/1
f 143/249/1 150/240/1 144/250/1
f 144/250/1 150/240/1 145/251/1
f 145/251/1 150/240/1 146/252/1
f 146/252/1 150/240/1 147/253/1
f 147/253/1 150/240/1 148/254/1
f 148/254/1 150/240/1 149/255/1
f 149/255/1 150/240/1 135/239/1
f 151/256/50 153/257/53 152/258/54
f 151/256/50 152/258/54 154/259/55
f 151/256/50 154/259/55 155/260/56
f 151/256/50 155/260/56 156/261/57
f 151/256/50 156/261/57 157/262/58
f 151/256/50 157/262/58 158/263/59
f 151/256/50 158/263/59 159/264/60
f 151/256/50 159/264/60 160/265/61
f 151/256/50 160/265/61 161/266/62
f 151/256/50 161/266/62 162/267/63
f 151/256/50 162/267/63 163/268/64
f 151/256/50 163/268/64 164/269/65
f 151/256/50 164/269/65 165/270/66
f 151/256/50 165/270/66 166/271/67
f 151/256/50 166/271/67 167/272/68
f 151/256/50 167/272/68 153/257/53
f 153/273/53 169/274/69 168/275/70 152/276/54
f 152/276/54 168/275/70 170/277/71 154/278/55
f 154/278/55 170/277/71 171/279/72 155/280/56
f 155/280/56 171/279/72 172/281/73 156/282/57
f 156/282/57 172/281/73 173/283/74 157/284/58
f 157/284/58 173/283/74 174/285/75 158/286/59
f 158/286/59 174/285/75 175/287/76 159/288/60
f 159/288/60 175/287/76 176/289/77 160/290/61
f 160/290/61 176/289/77 177/291/78 161/292/62
f 161/292/62 177/291/78 178/293/79 162/294/63
f 162/294/63 178/293/79 179/295/80 163/296/64
f 163/296/64 179/295/80 180/297/81 164/298/65
f 164/298/65 180/297/81 181/299/82 165/300/66
f 165/300/66 181/299/82 182/301/83 166/302/67
f 166/302/67 182/301/83 183/303/84 167/304/68
f 167/304/68 183/303/84 169/305/69 153/306/53
f 169/274/69 185/307/35 184/308/34 168/275/70
f 168/275/70 184/308/34 186/309/36 170/277/71
f 170/277/71 186/309/36 187/310/37 171/279/72
f 171/279/72 187/310/37 188/311/38 172/281/73
f 172/281/73 188/311/38 189/312/39 173/283/74
f 173/283/74 189/312/39 190/313/40 174/285/75
f 174/285/75 190/313/40 191/314/41 175/287/76
f 175/287/76 191/314/41 192/315/42 176/289/77
f 176/289/77 192/315/42 193/316/43 177/291/78
f 177/291/78 193/316/43 194/317/44 178/293/79
f 178/293/79 194/317/44 195/318/45 179/295/80
f 179/295/80 195/318/45 196/319/46 180/297/81
f 180/297/81 196/319/46 197/320/47 181/299/82
f 181/299/82 197/320/47 198/321/48 182/301/83
f 182/301/83 198/321/48 199/322/49 183/303/84
f 183/303/84 199/322/49 185/323/35 169/305/69
f 185/324/1 200/325/1 184/326/1
f 184/326/1 200/325/1 186/327/1
f 186/327/1 200/325/1 187/328/1
f 187/328/1 200/325/1 188/329/1
f 188/329/1 200/325/1 189/330/1
f 189/330/1 200/325/1 190/331/1
f 190/331/1 200/325/1 191/332/1
f 191/332/1 200/325/1 192/333/1
f 192/333/1 200/325/1 193/334/1
f 193/334/1 200/325/1 194/335/1
f 194/335/1 200/325/1 195/336/1
f 195/336/1 200/325/1 196/337/1
f 196/337/1 200/325/1 197/338/1
f 197/338/1 200/325/1 198/339/1
f 198/339/1 200/325/1 199/340/1
f 199/340/1 200/325/1 185/324/1
